<svg class="diagram-root" style="background: #f5f6f6" xmlns="http://www.w3.org/2000/svg" xmlns:xlink="http://www.w3.org/1999/xlink"><style>.diagram-root { font-family: "Helvetica Neue", sans-serif; font-size: 12px; } .t { overflow: visible; } .t-bg { y: 40; fill: #fff;   } .th { fill: #005aa0;   } .tht { fill: #fff; font-size: 14px;  } .tf { fill: #323c46; overflow: visible; } .tf.pk { fill: #005aa0; font-weight: bold; } .tf.fk { font-weight: bold; } .ty { fill: #adb1b5; font-weight: normal; text-anchor: end; } .r { fill: transparent; stroke: #c3c3c3; stroke-width: 1; } .l { stroke: 1; } .i { fill: #c2c7ce; stroke: #c2c7ce; } .i.ix { fill: #afb3b6; stroke: #000; } .fa { fill: transparent; overflow: visible; } .fa .bg.hover { fill: #f7f7f7; } .c { cy: 12; r: 4; stroke: #d2d2dc; fill: #d2d2dc; } .hr { fill: transparent; stroke: #323c46; stroke-opacity: 0.035; stroke-width: 13; } .dc { stroke: #fa5a3c; fill: #fa5a3c; } .x { stroke: white; stroke-width: 1; } .hl .th { fill: #1b9bff; } .hl .tht {  } .fhl .bg { fill: #e7f4ff; } .fhls .bg {  } .r.hl { stroke: #1b9bff; } .dim { opacity: 0.25; }</style><g class="drawing-wrapper" transform="translate(-3, -5) scale(1,1)"><g class="rs"><path d="M 308 192 m -1, 0 a 1,1 0 1,0 2,0 a 1,1 0 1,0 -2,0 M 308 192 m -0.5, 0 a 0.5,0.5 0 1,0 1,0 a 0.5,0.5 0 1,0 -1,0  M308 192 L308 192 296 192 M 308 198 m -1, 0 a 1,1 0 1,0 2,0 a 1,1 0 1,0 -2,0 M 308 198 m -0.5, 0 a 0.5,0.5 0 1,0 1,0 a 0.5,0.5 0 1,0 -1,0  M308 198 L308 198 301 192 308 186 M 308 186 m -1, 0 a 1,1 0 1,0 2,0 a 1,1 0 1,0 -2,0 M 308 186 m -0.5, 0 a 0.5,0.5 0 1,0 1,0 a 0.5,0.5 0 1,0 -1,0  M296 192 Q 263.93 192, 231.86 192 T 167.71 192 M 155.71 192 m -1, 0 a 1,1 0 1,0 2,0 a 1,1 0 1,0 -2,0 M 155.71 192 m -0.5, 0 a 0.5,0.5 0 1,0 1,0 a 0.5,0.5 0 1,0 -1,0  M155.71 192 L155.71 192 167.71 192 M161.71 198 L161.71 198 161.71 186" id="h928175790" class="r"></path><path d="M 428.04 217 m -1, 0 a 1,1 0 1,0 2,0 a 1,1 0 1,0 -2,0 M 428.04 217 m -0.5, 0 a 0.5,0.5 0 1,0 1,0 a 0.5,0.5 0 1,0 -1,0  M428.04 217 L428.04 217 440.04 217 M 428.04 223 m -1, 0 a 1,1 0 1,0 2,0 a 1,1 0 1,0 -2,0 M 428.04 223 m -0.5, 0 a 0.5,0.5 0 1,0 1,0 a 0.5,0.5 0 1,0 -1,0  M428.04 223 L428.04 223 435.04 217 428.04 211 M 428.04 211 m -1, 0 a 1,1 0 1,0 2,0 a 1,1 0 1,0 -2,0 M 428.04 211 m -0.5, 0 a 0.5,0.5 0 1,0 1,0 a 0.5,0.5 0 1,0 -1,0  M440.04 217 Q 474.53 217, 509.02 174 T 578 131 M 590 131 m -1, 0 a 1,1 0 1,0 2,0 a 1,1 0 1,0 -2,0 M 590 131 m -0.5, 0 a 0.5,0.5 0 1,0 1,0 a 0.5,0.5 0 1,0 -1,0  M590 131 L590 131 578 131 M584 137 L584 137 584 125" id="h2477651748" class="r"></path><path d="M 428.04 242 m -1, 0 a 1,1 0 1,0 2,0 a 1,1 0 1,0 -2,0 M 428.04 242 m -0.5, 0 a 0.5,0.5 0 1,0 1,0 a 0.5,0.5 0 1,0 -1,0  M428.04 242 L428.04 242 440.04 242 M 428.04 248 m -1, 0 a 1,1 0 1,0 2,0 a 1,1 0 1,0 -2,0 M 428.04 248 m -0.5, 0 a 0.5,0.5 0 1,0 1,0 a 0.5,0.5 0 1,0 -1,0  M428.04 248 L428.04 248 435.04 242 428.04 236 M 428.04 236 m -1, 0 a 1,1 0 1,0 2,0 a 1,1 0 1,0 -2,0 M 428.04 236 m -0.5, 0 a 0.5,0.5 0 1,0 1,0 a 0.5,0.5 0 1,0 -1,0  M440.04 242 Q 488.28 242, 536.52 318.5 T 633 395 M 645 395 m -1, 0 a 1,1 0 1,0 2,0 a 1,1 0 1,0 -2,0 M 645 395 m -0.5, 0 a 0.5,0.5 0 1,0 1,0 a 0.5,0.5 0 1,0 -1,0  M645 395 L645 395 633 395 M639 401 L639 401 639 389" id="h4107865207" class="r"></path></g><g class="hrs"></g><g class="ts"><svg width="130.71" height="100" x="25" y="135" id="h41485699" class="t"><rect height="40" width="130.71" class="th"></rect><text x="13" y="25" class="tht">Regions</text><rect height="60" width="130.71" class="t-bg"></rect><text x="13" y="61" class="tf pk">region_id<tspan x="117.71000000000001" class="ty">init</tspan></text><path d="M7,14A2,2 0 0,1 5,12A2,2 0 0,1 7,10A2,2 0 0,1 9,12A2,2 0 0,1 7,14M12.65,10C11.83,7.67 9.61,6 7, 6A6, 6 0 0, 0 1, 12A6, 6 0 0, 0 7, 18C9.61, 18 11.83, 16.33 12.65, 14H17V18H21V14H23V10H12.65Z" class="i pk" transform="translate(82.37015625000001, 48) scale(0.65)"></path><text x="13" y="86" class="tf">city<tspan x="117.71000000000001" class="ty">string</tspan></text></svg><svg width="186.09" height="150" x="590" y="74" id="h3889921393" class="t"><rect height="40" width="186.09" class="th"></rect><text x="13" y="25" class="tht">Users</text><rect height="110" width="186.09" class="t-bg"></rect><text x="13" y="61" class="tf pk">user_id<tspan x="173.09" class="ty">init</tspan></text><path d="M7,14A2,2 0 0,1 5,12A2,2 0 0,1 7,10A2,2 0 0,1 9,12A2,2 0 0,1 7,14M12.65,10C11.83,7.67 9.61,6 7, 6A6, 6 0 0, 0 1, 12A6, 6 0 0, 0 7, 18C9.61, 18 11.83, 16.33 12.65, 14H17V18H21V14H23V10H12.65Z" class="i pk" transform="translate(137.75015625, 48) scale(0.65)"></path><text x="13" y="86" class="tf fk">pref_region_id<tspan x="173.09" class="ty">init</tspan></text><text x="13" y="111" class="tf">username<tspan x="173.09" class="ty">string</tspan></text><text x="13" y="136" class="tf">encrypted_passcode<tspan x="173.09" class="ty">string</tspan></text></svg><svg width="120.04" height="225" x="308" y="35" id="h1611266215" class="t"><rect height="40" width="120.04" class="th"></rect><text x="13" y="25" class="tht">Posts</text><rect height="185" width="120.04" class="t-bg"></rect><text x="13" y="61" class="tf pk">post_id<tspan x="107.04" class="ty">init</tspan></text><path d="M7,14A2,2 0 0,1 5,12A2,2 0 0,1 7,10A2,2 0 0,1 9,12A2,2 0 0,1 7,14M12.65,10C11.83,7.67 9.61,6 7, 6A6, 6 0 0, 0 1, 12A6, 6 0 0, 0 7, 18C9.61, 18 11.83, 16.33 12.65, 14H17V18H21V14H23V10H12.65Z" class="i pk" transform="translate(71.70015625, 48) scale(0.65)"></path><text x="13" y="86" class="tf">title<tspan x="107.04" class="ty">string</tspan></text><text x="13" y="111" class="tf">text<tspan x="107.04" class="ty">string</tspan></text><text x="13" y="136" class="tf">location<tspan x="107.04" class="ty">string</tspan></text><text x="13" y="161" class="tf fk">region_id<tspan x="107.04" class="ty">init</tspan></text><text x="13" y="186" class="tf fk">user_id<tspan x="107.04" class="ty">init</tspan></text><text x="13" y="211" class="tf fk">cat_id<tspan x="107.04" class="ty">init</tspan></text></svg><svg width="121.37" height="100" x="645" y="338" id="h1234641711" class="t"><rect height="40" width="121.37" class="th"></rect><text x="13" y="25" class="tht">Categories</text><rect height="60" width="121.37" class="t-bg"></rect><text x="13" y="61" class="tf pk">cat_id<tspan x="108.37" class="ty">init</tspan></text><path d="M7,14A2,2 0 0,1 5,12A2,2 0 0,1 7,10A2,2 0 0,1 9,12A2,2 0 0,1 7,14M12.65,10C11.83,7.67 9.61,6 7, 6A6, 6 0 0, 0 1, 12A6, 6 0 0, 0 7, 18C9.61, 18 11.83, 16.33 12.65, 14H17V18H21V14H23V10H12.65Z" class="i pk" transform="translate(73.03015625, 48) scale(0.65)"></path><text x="13" y="86" class="tf">category<tspan x="108.37" class="ty">string</tspan></text></svg></g></g><text class="qdbd-link" x="10" y="20">www.quickdatabasediagrams.com</text></svg>