<svg class="diagram-root" style="background: #f5f6f6" xmlns="http://www.w3.org/2000/svg" xmlns:xlink="http://www.w3.org/1999/xlink"><style>.diagram-root { font-family: "Helvetica Neue", sans-serif; font-size: 12px; } .t { overflow: visible; } .t-bg { y: 40; fill: #fff;   } .th { fill: #005aa0;   } .tht { fill: #fff; font-size: 14px;  } .tf { fill: #323c46; overflow: visible; } .tf.pk { fill: #005aa0; font-weight: bold; } .tf.fk { font-weight: bold; } .ty { fill: #adb1b5; font-weight: normal; text-anchor: end; } .r { fill: transparent; stroke: #c3c3c3; stroke-width: 1; } .l { stroke: 1; } .i { fill: #c2c7ce; stroke: #c2c7ce; } .i.ix { fill: #afb3b6; stroke: #000; } .fa { fill: transparent; overflow: visible; } .fa .bg.hover { fill: #f7f7f7; } .c { cy: 12; r: 4; stroke: #d2d2dc; fill: #d2d2dc; } .hr { fill: transparent; stroke: #323c46; stroke-opacity: 0.035; stroke-width: 13; } .dc { stroke: #fa5a3c; fill: #fa5a3c; } .x { stroke: white; stroke-width: 1; } .hl .th { fill: #1b9bff; } .hl .tht {  } .fhl .bg { fill: #e7f4ff; } .fhls .bg {  } .r.hl { stroke: #1b9bff; } .dim { opacity: 0.25; }</style><g class="drawing-wrapper" transform="translate(2, 18) scale(1,1)"><g class="rs"><path d="M 158.04 87 m -1, 0 a 1,1 0 1,0 2,0 a 1,1 0 1,0 -2,0 M 158.04 87 m -0.5, 0 a 0.5,0.5 0 1,0 1,0 a 0.5,0.5 0 1,0 -1,0  M158.04 87 L158.04 87 170.04 87 M 158.04 93 m -1, 0 a 1,1 0 1,0 2,0 a 1,1 0 1,0 -2,0 M 158.04 93 m -0.5, 0 a 0.5,0.5 0 1,0 1,0 a 0.5,0.5 0 1,0 -1,0  M158.04 93 L158.04 93 165.04 87 158.04 81 M 158.04 81 m -1, 0 a 1,1 0 1,0 2,0 a 1,1 0 1,0 -2,0 M 158.04 81 m -0.5, 0 a 0.5,0.5 0 1,0 1,0 a 0.5,0.5 0 1,0 -1,0  M170.04 87 Q 194.78 87, 219.52 96.5 T 269 106 M 281 106 m -1, 0 a 1,1 0 1,0 2,0 a 1,1 0 1,0 -2,0 M 281 106 m -0.5, 0 a 0.5,0.5 0 1,0 1,0 a 0.5,0.5 0 1,0 -1,0  M281 106 L281 106 269 106 M275 112 L275 112 275 100" id="h1958553006" class="r"></path><path d="M 159.72 202 m -1, 0 a 1,1 0 1,0 2,0 a 1,1 0 1,0 -2,0 M 159.72 202 m -0.5, 0 a 0.5,0.5 0 1,0 1,0 a 0.5,0.5 0 1,0 -1,0  M159.72 202 L159.72 202 171.72 202 M 159.72 208 m -1, 0 a 1,1 0 1,0 2,0 a 1,1 0 1,0 -2,0 M 159.72 208 m -0.5, 0 a 0.5,0.5 0 1,0 1,0 a 0.5,0.5 0 1,0 -1,0  M159.72 208 L159.72 208 166.72 202 159.72 196 M 159.72 196 m -1, 0 a 1,1 0 1,0 2,0 a 1,1 0 1,0 -2,0 M 159.72 196 m -0.5, 0 a 0.5,0.5 0 1,0 1,0 a 0.5,0.5 0 1,0 -1,0  M171.72 202 Q 196.04 202, 220.36 166.5 T 269 131 M 281 131 m -1, 0 a 1,1 0 1,0 2,0 a 1,1 0 1,0 -2,0 M 281 131 m -0.5, 0 a 0.5,0.5 0 1,0 1,0 a 0.5,0.5 0 1,0 -1,0  M281 131 L281 131 269 131 M275 137 L275 137 275 125" id="h1777243473" class="r"></path><path d="M 399.02 81 m -1, 0 a 1,1 0 1,0 2,0 a 1,1 0 1,0 -2,0 M 399.02 81 m -0.5, 0 a 0.5,0.5 0 1,0 1,0 a 0.5,0.5 0 1,0 -1,0  M399.02 81 L399.02 81 411.02 81 M 399.02 87 m -1, 0 a 1,1 0 1,0 2,0 a 1,1 0 1,0 -2,0 M 399.02 87 m -0.5, 0 a 0.5,0.5 0 1,0 1,0 a 0.5,0.5 0 1,0 -1,0  M399.02 87 L399.02 87 406.02 81 399.02 75 M 399.02 75 m -1, 0 a 1,1 0 1,0 2,0 a 1,1 0 1,0 -2,0 M 399.02 75 m -0.5, 0 a 0.5,0.5 0 1,0 1,0 a 0.5,0.5 0 1,0 -1,0  M411.02 81 Q 439.27 81, 467.51 108.5 T 524 136 M 536 136 m -1, 0 a 1,1 0 1,0 2,0 a 1,1 0 1,0 -2,0 M 536 136 m -0.5, 0 a 0.5,0.5 0 1,0 1,0 a 0.5,0.5 0 1,0 -1,0  M536 136 L536 136 524 136 M530 142 L530 142 530 130" id="h120009773" class="r"></path><path d="M 774.71 288 m -1, 0 a 1,1 0 1,0 2,0 a 1,1 0 1,0 -2,0 M 774.71 288 m -0.5, 0 a 0.5,0.5 0 1,0 1,0 a 0.5,0.5 0 1,0 -1,0  M774.71 288 L774.71 288 786.71 288 M 774.71 294 m -1, 0 a 1,1 0 1,0 2,0 a 1,1 0 1,0 -2,0 M 774.71 294 m -0.5, 0 a 0.5,0.5 0 1,0 1,0 a 0.5,0.5 0 1,0 -1,0  M774.71 294 L774.71 294 781.71 288 774.71 282 M 774.71 282 m -1, 0 a 1,1 0 1,0 2,0 a 1,1 0 1,0 -2,0 M 774.71 282 m -0.5, 0 a 0.5,0.5 0 1,0 1,0 a 0.5,0.5 0 1,0 -1,0  M786.71 288 C 836.71 288, 888.7 161, 700.06 161 M 688.06 161 m -1, 0 a 1,1 0 1,0 2,0 a 1,1 0 1,0 -2,0 M 688.06 161 m -0.5, 0 a 0.5,0.5 0 1,0 1,0 a 0.5,0.5 0 1,0 -1,0  M688.06 161 L688.06 161 700.06 161 M694.06 167 L694.06 167 694.06 155" id="h4213844826" class="r"></path></g><g class="hrs"></g><g class="ts"><svg width="128.04" height="100" x="30" y="30" id="h16875077" class="t"><rect height="40" width="128.04" class="th"></rect><text x="13" y="25" class="tht">Doctors</text><rect height="60" width="128.04" class="t-bg"></rect><text x="13" y="61" class="tf pk">doctor_id<tspan x="115.03999999999999" class="ty">int</tspan></text><path d="M7,14A2,2 0 0,1 5,12A2,2 0 0,1 7,10A2,2 0 0,1 9,12A2,2 0 0,1 7,14M12.65,10C11.83,7.67 9.61,6 7, 6A6, 6 0 0, 0 1, 12A6, 6 0 0, 0 7, 18C9.61, 18 11.83, 16.33 12.65, 14H17V18H21V14H23V10H12.65Z" class="i pk" transform="translate(82.36617187499999, 48) scale(0.65)"></path><text x="13" y="86" class="tf">specialty<tspan x="115.03999999999999" class="ty">string</tspan></text></svg><svg width="130.72" height="150" x="29" y="145" id="h3676580549" class="t"><rect height="40" width="130.72" class="th"></rect><text x="13" y="25" class="tht">Patients</text><rect height="110" width="130.72" class="t-bg"></rect><text x="13" y="61" class="tf pk">patient_id<tspan x="117.72" class="ty">int</tspan></text><path d="M7,14A2,2 0 0,1 5,12A2,2 0 0,1 7,10A2,2 0 0,1 9,12A2,2 0 0,1 7,14M12.65,10C11.83,7.67 9.61,6 7, 6A6, 6 0 0, 0 1, 12A6, 6 0 0, 0 7, 18C9.61, 18 11.83, 16.33 12.65, 14H17V18H21V14H23V10H12.65Z" class="i pk" transform="translate(85.046171875, 48) scale(0.65)"></path><text x="13" y="86" class="tf">insurance<tspan x="117.72" class="ty">string</tspan></text><text x="13" y="111" class="tf">name<tspan x="117.72" class="ty">string</tspan></text><text x="13" y="136" class="tf">birthday<tspan x="117.72" class="ty">date</tspan></text></svg><svg width="118.02" height="150" x="281" y="24" id="h3280351983" class="t"><rect height="40" width="118.02" class="th"></rect><text x="13" y="25" class="tht">Visits</text><rect height="110" width="118.02" class="t-bg"></rect><text x="13" y="61" class="tf pk">visit_id<tspan x="105.02" class="ty">init</tspan></text><path d="M7,14A2,2 0 0,1 5,12A2,2 0 0,1 7,10A2,2 0 0,1 9,12A2,2 0 0,1 7,14M12.65,10C11.83,7.67 9.61,6 7, 6A6, 6 0 0, 0 1, 12A6, 6 0 0, 0 7, 18C9.61, 18 11.83, 16.33 12.65, 14H17V18H21V14H23V10H12.65Z" class="i pk" transform="translate(69.68015625, 48) scale(0.65)"></path><text x="13" y="86" class="tf fk">doctor_id<tspan x="105.02" class="ty">init</tspan></text><text x="13" y="111" class="tf fk">patient_id<tspan x="105.02" class="ty">init</tspan></text><text x="13" y="136" class="tf">date<tspan x="105.02" class="ty">date</tspan></text></svg><svg width="144.71" height="125" x="630" y="231" id="h1794948770" class="t"><rect height="40" width="144.71" class="th"></rect><text x="13" y="25" class="tht">Diseases</text><rect height="85" width="144.71" class="t-bg"></rect><text x="13" y="61" class="tf pk">diseases_id<tspan x="131.71" class="ty">init</tspan></text><path d="M7,14A2,2 0 0,1 5,12A2,2 0 0,1 7,10A2,2 0 0,1 9,12A2,2 0 0,1 7,14M12.65,10C11.83,7.67 9.61,6 7, 6A6, 6 0 0, 0 1, 12A6, 6 0 0, 0 7, 18C9.61, 18 11.83, 16.33 12.65, 14H17V18H21V14H23V10H12.65Z" class="i pk" transform="translate(96.37015625000001, 48) scale(0.65)"></path><text x="13" y="86" class="tf">name<tspan x="131.71" class="ty">string</tspan></text><text x="13" y="111" class="tf">description<tspan x="131.71" class="ty">string</tspan></text></svg><svg width="152.06" height="150" x="536" y="54" id="h3047656030" class="t"><rect height="40" width="152.06" class="th"></rect><text x="13" y="25" class="tht">Diagnoses</text><rect height="110" width="152.06" class="t-bg"></rect><text x="13" y="61" class="tf pk">diagnoses_id<tspan x="139.06" class="ty">init</tspan></text><path d="M7,14A2,2 0 0,1 5,12A2,2 0 0,1 7,10A2,2 0 0,1 9,12A2,2 0 0,1 7,14M12.65,10C11.83,7.67 9.61,6 7, 6A6, 6 0 0, 0 1, 12A6, 6 0 0, 0 7, 18C9.61, 18 11.83, 16.33 12.65, 14H17V18H21V14H23V10H12.65Z" class="i pk" transform="translate(103.72015625, 48) scale(0.65)"></path><text x="13" y="86" class="tf fk">visit_id<tspan x="139.06" class="ty">init</tspan></text><text x="13" y="111" class="tf fk">diseases_id<tspan x="139.06" class="ty">init</tspan></text><text x="13" y="136" class="tf">notes<tspan x="139.06" class="ty">string</tspan></text></svg></g></g><text class="qdbd-link" x="10" y="20">www.quickdatabasediagrams.com</text></svg>