<svg class="diagram-root" style="background: #f5f6f6" xmlns="http://www.w3.org/2000/svg" xmlns:xlink="http://www.w3.org/1999/xlink"><style>.diagram-root { font-family: "Helvetica Neue", sans-serif; font-size: 12px; } .t { overflow: visible; } .t-bg { y: 40; fill: #fff;   } .th { fill: #005aa0;   } .tht { fill: #fff; font-size: 14px;  } .tf { fill: #323c46; overflow: visible; } .tf.pk { fill: #005aa0; font-weight: bold; } .tf.fk { font-weight: bold; } .ty { fill: #adb1b5; font-weight: normal; text-anchor: end; } .r { fill: transparent; stroke: #c3c3c3; stroke-width: 1; } .l { stroke: 1; } .i { fill: #c2c7ce; stroke: #c2c7ce; } .i.ix { fill: #afb3b6; stroke: #000; } .fa { fill: transparent; overflow: visible; } .fa .bg.hover { fill: #f7f7f7; } .c { cy: 12; r: 4; stroke: #d2d2dc; fill: #d2d2dc; } .hr { fill: transparent; stroke: #323c46; stroke-opacity: 0.035; stroke-width: 13; } .dc { stroke: #fa5a3c; fill: #fa5a3c; } .x { stroke: white; stroke-width: 1; } .hl .th { fill: #1b9bff; } .hl .tht {  } .fhl .bg { fill: #e7f4ff; } .fhls .bg {  } .r.hl { stroke: #1b9bff; } .dim { opacity: 0.25; }</style><g class="drawing-wrapper" transform="translate(36, 101) scale(1,1)"><g class="rs"><path d="M 177.03 117 m -1, 0 a 1,1 0 1,0 2,0 a 1,1 0 1,0 -2,0 M 177.03 117 m -0.5, 0 a 0.5,0.5 0 1,0 1,0 a 0.5,0.5 0 1,0 -1,0  M177.03 117 L177.03 117 189.03 117 M 177.03 123 m -1, 0 a 1,1 0 1,0 2,0 a 1,1 0 1,0 -2,0 M 177.03 123 m -0.5, 0 a 0.5,0.5 0 1,0 1,0 a 0.5,0.5 0 1,0 -1,0  M177.03 123 L177.03 123 184.03 117 177.03 111 M 177.03 111 m -1, 0 a 1,1 0 1,0 2,0 a 1,1 0 1,0 -2,0 M 177.03 111 m -0.5, 0 a 0.5,0.5 0 1,0 1,0 a 0.5,0.5 0 1,0 -1,0  M189.03 117 Q 249.27 117, 309.52 106.5 T 430 96 M 442 96 m -1, 0 a 1,1 0 1,0 2,0 a 1,1 0 1,0 -2,0 M 442 96 m -0.5, 0 a 0.5,0.5 0 1,0 1,0 a 0.5,0.5 0 1,0 -1,0  M442 96 L442 96 430 96 M436 102 L436 102 436 90" id="h2571349104" class="r"></path><path d="M -14 618 m -1, 0 a 1,1 0 1,0 2,0 a 1,1 0 1,0 -2,0 M -14 618 m -0.5, 0 a 0.5,0.5 0 1,0 1,0 a 0.5,0.5 0 1,0 -1,0  M-14 618 L-14 618 -26 618 M -14 624 m -1, 0 a 1,1 0 1,0 2,0 a 1,1 0 1,0 -2,0 M -14 624 m -0.5, 0 a 0.5,0.5 0 1,0 1,0 a 0.5,0.5 0 1,0 -1,0  M-14 624 L-14 624 -21 618 -14 612 M -14 612 m -1, 0 a 1,1 0 1,0 2,0 a 1,1 0 1,0 -2,0 M -14 612 m -0.5, 0 a 0.5,0.5 0 1,0 1,0 a 0.5,0.5 0 1,0 -1,0  M-26 618 C -76 618, -122.80000000000001 -14, 52 -14 M 64 -14 m -1, 0 a 1,1 0 1,0 2,0 a 1,1 0 1,0 -2,0 M 64 -14 m -0.5, 0 a 0.5,0.5 0 1,0 1,0 a 0.5,0.5 0 1,0 -1,0  M64 -14 L64 -14 52 -14 M58 -8 L58 -8 58 -20" id="h1034455007" class="r"></path><path d="M 106.04 643 m -1, 0 a 1,1 0 1,0 2,0 a 1,1 0 1,0 -2,0 M 106.04 643 m -0.5, 0 a 0.5,0.5 0 1,0 1,0 a 0.5,0.5 0 1,0 -1,0  M106.04 643 L106.04 643 118.04 643 M 106.04 649 m -1, 0 a 1,1 0 1,0 2,0 a 1,1 0 1,0 -2,0 M 106.04 649 m -0.5, 0 a 0.5,0.5 0 1,0 1,0 a 0.5,0.5 0 1,0 -1,0  M106.04 649 L106.04 649 113.04 643 106.04 637 M 106.04 637 m -1, 0 a 1,1 0 1,0 2,0 a 1,1 0 1,0 -2,0 M 106.04 637 m -0.5, 0 a 0.5,0.5 0 1,0 1,0 a 0.5,0.5 0 1,0 -1,0  M118.04 643 Q 171.78 643, 225.52 492.5 T 333 342 M 345 342 m -1, 0 a 1,1 0 1,0 2,0 a 1,1 0 1,0 -2,0 M 345 342 m -0.5, 0 a 0.5,0.5 0 1,0 1,0 a 0.5,0.5 0 1,0 -1,0  M345 342 L345 342 333 342 M339 348 L339 348 339 336" id="h2190174212" class="r"></path><path d="M 194.04 -14 m -1, 0 a 1,1 0 1,0 2,0 a 1,1 0 1,0 -2,0 M 194.04 -14 m -0.5, 0 a 0.5,0.5 0 1,0 1,0 a 0.5,0.5 0 1,0 -1,0  M194.04 -14 L194.04 -14 206.04 -14 M 194.04 -8 m -1, 0 a 1,1 0 1,0 2,0 a 1,1 0 1,0 -2,0 M 194.04 -8 m -0.5, 0 a 0.5,0.5 0 1,0 1,0 a 0.5,0.5 0 1,0 -1,0  M194.04 -8 L194.04 -8 201.04 -14 194.04 -20 M 194.04 -20 m -1, 0 a 1,1 0 1,0 2,0 a 1,1 0 1,0 -2,0 M 194.04 -20 m -0.5, 0 a 0.5,0.5 0 1,0 1,0 a 0.5,0.5 0 1,0 -1,0  M206.04 -14 Q 262.03 -14, 318.02 16 T 430 46 M 442 46 m -1, 0 a 1,1 0 1,0 2,0 a 1,1 0 1,0 -2,0 M 442 46 m -0.5, 0 a 0.5,0.5 0 1,0 1,0 a 0.5,0.5 0 1,0 -1,0  M442 46 L442 46 430 46 M436 52 L436 52 436 40" id="h2971105190" class="r"></path><path d="M 485.72 342 m -1, 0 a 1,1 0 1,0 2,0 a 1,1 0 1,0 -2,0 M 485.72 342 m -0.5, 0 a 0.5,0.5 0 1,0 1,0 a 0.5,0.5 0 1,0 -1,0  M485.72 342 L485.72 342 497.72 342 M 485.72 348 m -1, 0 a 1,1 0 1,0 2,0 a 1,1 0 1,0 -2,0 M 485.72 348 m -0.5, 0 a 0.5,0.5 0 1,0 1,0 a 0.5,0.5 0 1,0 -1,0  M485.72 348 L485.72 348 492.72 342 485.72 336 M 485.72 336 m -1, 0 a 1,1 0 1,0 2,0 a 1,1 0 1,0 -2,0 M 485.72 336 m -0.5, 0 a 0.5,0.5 0 1,0 1,0 a 0.5,0.5 0 1,0 -1,0  M497.72 342 C 663.4159999999999 342, 620.03 71, 570.03 71 M 558.03 71 m -1, 0 a 1,1 0 1,0 2,0 a 1,1 0 1,0 -2,0 M 558.03 71 m -0.5, 0 a 0.5,0.5 0 1,0 1,0 a 0.5,0.5 0 1,0 -1,0  M558.03 71 L558.03 71 570.03 71 M564.03 77 L564.03 77 564.03 65" id="h2758719940" class="r"></path><path d="M 485.72 467 m -1, 0 a 1,1 0 1,0 2,0 a 1,1 0 1,0 -2,0 M 485.72 467 m -0.5, 0 a 0.5,0.5 0 1,0 1,0 a 0.5,0.5 0 1,0 -1,0  M485.72 467 L485.72 467 497.72 467 M 485.72 473 m -1, 0 a 1,1 0 1,0 2,0 a 1,1 0 1,0 -2,0 M 485.72 473 m -0.5, 0 a 0.5,0.5 0 1,0 1,0 a 0.5,0.5 0 1,0 -1,0  M485.72 473 L485.72 473 492.72 467 485.72 461 M 485.72 461 m -1, 0 a 1,1 0 1,0 2,0 a 1,1 0 1,0 -2,0 M 485.72 461 m -0.5, 0 a 0.5,0.5 0 1,0 1,0 a 0.5,0.5 0 1,0 -1,0  M497.72 467 Q 526.04 467, 554.36 448.5 T 611 430 M 623 430 m -1, 0 a 1,1 0 1,0 2,0 a 1,1 0 1,0 -2,0 M 623 430 m -0.5, 0 a 0.5,0.5 0 1,0 1,0 a 0.5,0.5 0 1,0 -1,0  M623 430 L623 430 611 430 M617 436 L617 436 617 424" id="h3266396923" class="r"></path><path d="M 485.72 492 m -1, 0 a 1,1 0 1,0 2,0 a 1,1 0 1,0 -2,0 M 485.72 492 m -0.5, 0 a 0.5,0.5 0 1,0 1,0 a 0.5,0.5 0 1,0 -1,0  M485.72 492 L485.72 492 497.72 492 M 485.72 498 m -1, 0 a 1,1 0 1,0 2,0 a 1,1 0 1,0 -2,0 M 485.72 498 m -0.5, 0 a 0.5,0.5 0 1,0 1,0 a 0.5,0.5 0 1,0 -1,0  M485.72 498 L485.72 498 492.72 492 485.72 486 M 485.72 486 m -1, 0 a 1,1 0 1,0 2,0 a 1,1 0 1,0 -2,0 M 485.72 486 m -0.5, 0 a 0.5,0.5 0 1,0 1,0 a 0.5,0.5 0 1,0 -1,0  M497.72 492 Q 519.54 492, 541.36 569 T 585 646 M 597 646 m -1, 0 a 1,1 0 1,0 2,0 a 1,1 0 1,0 -2,0 M 597 646 m -0.5, 0 a 0.5,0.5 0 1,0 1,0 a 0.5,0.5 0 1,0 -1,0  M597 646 L597 646 585 646 M591 652 L591 652 591 640" id="h4273479759" class="r"></path><path d="M 41.33 302.33000000000004 m -1, 0 a 1,1 0 1,0 2,0 a 1,1 0 1,0 -2,0 M 41.33 302.33000000000004 m -0.5, 0 a 0.5,0.5 0 1,0 1,0 a 0.5,0.5 0 1,0 -1,0  M41.33 302.33000000000004 L41.33 302.33000000000004 29.33 302.33000000000004 M 41.33 308.33000000000004 m -1, 0 a 1,1 0 1,0 2,0 a 1,1 0 1,0 -2,0 M 41.33 308.33000000000004 m -0.5, 0 a 0.5,0.5 0 1,0 1,0 a 0.5,0.5 0 1,0 -1,0  M41.33 308.33000000000004 L41.33 308.33000000000004 34.33 302.33000000000004 41.33 296.33000000000004 M 41.33 296.33000000000004 m -1, 0 a 1,1 0 1,0 2,0 a 1,1 0 1,0 -2,0 M 41.33 296.33000000000004 m -0.5, 0 a 0.5,0.5 0 1,0 1,0 a 0.5,0.5 0 1,0 -1,0  M29.33 302.33000000000004 C -20.67 302.33000000000004, -27.672000000000004 117, 41 117 M 53 117 m -1, 0 a 1,1 0 1,0 2,0 a 1,1 0 1,0 -2,0 M 53 117 m -0.5, 0 a 0.5,0.5 0 1,0 1,0 a 0.5,0.5 0 1,0 -1,0  M53 117 L53 117 41 117 M47 123 L47 123 47 111" id="h2981118249" class="r"></path><path d="M 226.03 327.33000000000004 m -1, 0 a 1,1 0 1,0 2,0 a 1,1 0 1,0 -2,0 M 226.03 327.33000000000004 m -0.5, 0 a 0.5,0.5 0 1,0 1,0 a 0.5,0.5 0 1,0 -1,0  M226.03 327.33000000000004 L226.03 327.33000000000004 238.03 327.33000000000004 M 226.03 333.33000000000004 m -1, 0 a 1,1 0 1,0 2,0 a 1,1 0 1,0 -2,0 M 226.03 333.33000000000004 m -0.5, 0 a 0.5,0.5 0 1,0 1,0 a 0.5,0.5 0 1,0 -1,0  M226.03 333.33000000000004 L226.03 333.33000000000004 233.03 327.33000000000004 226.03 321.33000000000004 M 226.03 321.33000000000004 m -1, 0 a 1,1 0 1,0 2,0 a 1,1 0 1,0 -2,0 M 226.03 321.33000000000004 m -0.5, 0 a 0.5,0.5 0 1,0 1,0 a 0.5,0.5 0 1,0 -1,0  M238.03 327.33000000000004 Q 261.77 327.33000000000004, 285.52 334.67 T 333 342 M 345 342 m -1, 0 a 1,1 0 1,0 2,0 a 1,1 0 1,0 -2,0 M 345 342 m -0.5, 0 a 0.5,0.5 0 1,0 1,0 a 0.5,0.5 0 1,0 -1,0  M345 342 L345 342 333 342 M339 348 L339 348 339 336" id="h856858006" class="r"></path></g><g class="hrs"></g><g class="ts"><svg width="124.03" height="125" x="53" y="60" id="h3010508784" class="t"><rect height="40" width="124.03" class="th"></rect><text x="13" y="25" class="tht">Teams</text><rect height="85" width="124.03" class="t-bg"></rect><text x="13" y="61" class="tf pk">team_id<tspan x="111.03" class="ty">init</tspan></text><path d="M7,14A2,2 0 0,1 5,12A2,2 0 0,1 7,10A2,2 0 0,1 9,12A2,2 0 0,1 7,14M12.65,10C11.83,7.67 9.61,6 7, 6A6, 6 0 0, 0 1, 12A6, 6 0 0, 0 7, 18C9.61, 18 11.83, 16.33 12.65, 14H17V18H21V14H23V10H12.65Z" class="i pk" transform="translate(75.69015625, 48) scale(0.65)"></path><text x="13" y="86" class="tf">name<tspan x="111.03" class="ty">string</tspan></text><text x="13" y="111" class="tf">city<tspan x="111.03" class="ty">string</tspan></text></svg><svg width="120.04" height="125" x="-14" y="536" id="h2207534861" class="t"><rect height="40" width="120.04" class="th"></rect><text x="13" y="25" class="tht">Goals</text><rect height="85" width="120.04" class="t-bg"></rect><text x="13" y="61" class="tf pk">goal_id<tspan x="107.04" class="ty">init</tspan></text><path d="M7,14A2,2 0 0,1 5,12A2,2 0 0,1 7,10A2,2 0 0,1 9,12A2,2 0 0,1 7,14M12.65,10C11.83,7.67 9.61,6 7, 6A6, 6 0 0, 0 1, 12A6, 6 0 0, 0 7, 18C9.61, 18 11.83, 16.33 12.65, 14H17V18H21V14H23V10H12.65Z" class="i pk" transform="translate(71.70015625, 48) scale(0.65)"></path><text x="13" y="86" class="tf fk">player_id<tspan x="107.04" class="ty">init</tspan></text><text x="13" y="111" class="tf fk">match_id<tspan x="107.04" class="ty">init</tspan></text></svg><svg width="130.04" height="100" x="64" y="-71" id="h4103274130" class="t"><rect height="40" width="130.04" class="th"></rect><text x="13" y="25" class="tht">Players</text><rect height="60" width="130.04" class="t-bg"></rect><text x="13" y="61" class="tf pk">player_id<tspan x="117.03999999999999" class="ty">init</tspan></text><path d="M7,14A2,2 0 0,1 5,12A2,2 0 0,1 7,10A2,2 0 0,1 9,12A2,2 0 0,1 7,14M12.65,10C11.83,7.67 9.61,6 7, 6A6, 6 0 0, 0 1, 12A6, 6 0 0, 0 7, 18C9.61, 18 11.83, 16.33 12.65, 14H17V18H21V14H23V10H12.65Z" class="i pk" transform="translate(81.70015624999999, 48) scale(0.65)"></path><text x="13" y="86" class="tf">name<tspan x="117.03999999999999" class="ty">string</tspan></text></svg><svg width="111.36" height="100" x="597" y="589" id="h332749422" class="t"><rect height="40" width="111.36" class="th"></rect><text x="13" y="25" class="tht">Referees</text><rect height="60" width="111.36" class="t-bg"></rect><text x="13" y="61" class="tf pk">ref_id<tspan x="98.36" class="ty">init</tspan></text><path d="M7,14A2,2 0 0,1 5,12A2,2 0 0,1 7,10A2,2 0 0,1 9,12A2,2 0 0,1 7,14M12.65,10C11.83,7.67 9.61,6 7, 6A6, 6 0 0, 0 1, 12A6, 6 0 0, 0 7, 18C9.61, 18 11.83, 16.33 12.65, 14H17V18H21V14H23V10H12.65Z" class="i pk" transform="translate(63.02015625, 48) scale(0.65)"></path><text x="13" y="86" class="tf">name<tspan x="98.36" class="ty">string</tspan></text></svg><svg width="140.72" height="225" x="345" y="285" id="h3829905542" class="t"><rect height="40" width="140.72" class="th"></rect><text x="13" y="25" class="tht">Matches</text><rect height="185" width="140.72" class="t-bg"></rect><text x="13" y="61" class="tf pk">match_id<tspan x="127.72" class="ty">init</tspan></text><path d="M7,14A2,2 0 0,1 5,12A2,2 0 0,1 7,10A2,2 0 0,1 9,12A2,2 0 0,1 7,14M12.65,10C11.83,7.67 9.61,6 7, 6A6, 6 0 0, 0 1, 12A6, 6 0 0, 0 7, 18C9.61, 18 11.83, 16.33 12.65, 14H17V18H21V14H23V10H12.65Z" class="i pk" transform="translate(92.38015625, 48) scale(0.65)"></path><text x="13" y="86" class="tf fk">home_team_id<tspan x="127.72" class="ty">init</tspan></text><text x="13" y="111" class="tf fk">guest_team_id<tspan x="127.72" class="ty">init</tspan></text><text x="13" y="136" class="tf">location<tspan x="127.72" class="ty">string</tspan></text><text x="13" y="161" class="tf">date<tspan x="127.72" class="ty">date</tspan></text><text x="13" y="186" class="tf fk">season_id<tspan x="127.72" class="ty">init</tspan></text><text x="13" y="211" class="tf fk">ref_id<tspan x="127.72" class="ty">init</tspan></text></svg><svg width="136.05" height="125" x="623" y="373" id="h3133071897" class="t"><rect height="40" width="136.05" class="th"></rect><text x="13" y="25" class="tht">Season</text><rect height="85" width="136.05" class="t-bg"></rect><text x="13" y="61" class="tf pk">season_id<tspan x="123.05000000000001" class="ty">init</tspan></text><path d="M7,14A2,2 0 0,1 5,12A2,2 0 0,1 7,10A2,2 0 0,1 9,12A2,2 0 0,1 7,14M12.65,10C11.83,7.67 9.61,6 7, 6A6, 6 0 0, 0 1, 12A6, 6 0 0, 0 7, 18C9.61, 18 11.83, 16.33 12.65, 14H17V18H21V14H23V10H12.65Z" class="i pk" transform="translate(87.71015625000001, 48) scale(0.65)"></path><text x="13" y="86" class="tf">start_date<tspan x="123.05000000000001" class="ty">date</tspan></text><text x="13" y="111" class="tf">end_date<tspan x="123.05000000000001" class="ty">date</tspan></text></svg><svg width="184.7" height="150" x="41.33" y="220.33" id="h1488401382" class="t"><rect height="40" width="184.7" class="th"></rect><text x="13" y="25" class="tht">Results</text><rect height="110" width="184.7" class="t-bg"></rect><text x="13" y="61" class="tf pk">result_id<tspan x="171.7" class="ty">init</tspan></text><path d="M7,14A2,2 0 0,1 5,12A2,2 0 0,1 7,10A2,2 0 0,1 9,12A2,2 0 0,1 7,14M12.65,10C11.83,7.67 9.61,6 7, 6A6, 6 0 0, 0 1, 12A6, 6 0 0, 0 7, 18C9.61, 18 11.83, 16.33 12.65, 14H17V18H21V14H23V10H12.65Z" class="i pk" transform="translate(136.36015625, 48) scale(0.65)"></path><text x="13" y="86" class="tf fk">team_id<tspan x="171.7" class="ty">init</tspan></text><text x="13" y="111" class="tf fk">match_id<tspan x="171.7" class="ty">init</tspan></text><text x="13" y="136" class="tf">result(win,loss,draw)<tspan x="171.7" class="ty">string</tspan></text></svg><svg width="116.03" height="150" x="442" y="-36" id="h1247361070" class="t"><rect height="40" width="116.03" class="th"></rect><text x="13" y="25" class="tht">Lineups</text><rect height="110" width="116.03" class="t-bg"></rect><text x="13" y="61" class="tf pk">line_id<tspan x="103.03" class="ty">init</tspan></text><path d="M7,14A2,2 0 0,1 5,12A2,2 0 0,1 7,10A2,2 0 0,1 9,12A2,2 0 0,1 7,14M12.65,10C11.83,7.67 9.61,6 7, 6A6, 6 0 0, 0 1, 12A6, 6 0 0, 0 7, 18C9.61, 18 11.83, 16.33 12.65, 14H17V18H21V14H23V10H12.65Z" class="i pk" transform="translate(67.69015625, 48) scale(0.65)"></path><text x="13" y="86" class="tf fk">player_id<tspan x="103.03" class="ty">init</tspan></text><text x="13" y="111" class="tf fk">match_id<tspan x="103.03" class="ty">init</tspan></text><text x="13" y="136" class="tf fk">team_id<tspan x="103.03" class="ty">init</tspan></text></svg></g></g><text class="qdbd-link" x="10" y="20">www.quickdatabasediagrams.com</text></svg>